<?xml version="1.0" standalone="no"?>
<!DOCTYPE svg PUBLIC "-//W3C//DTD SVG 1.0//EN" "http://www.w3.org/TR/2001/REC-SVG-20010904/DTD/svg10.dtd">
<svg xmlns="http://www.w3.org/2000/svg" xmlns:xlink="http://www.w3.org/1999/xlink" id="body_1" width="85" height="65">

<g transform="matrix(0.0996483 0 0 0.09984639 0 0)">
	<g transform="matrix(0.13328123 0 -0 -0.13340165 0 651)">
	</g>
    <path transform="matrix(0.13328123 0 -0 -0.13340165 0 651)"  d="M1625 4861C 1583 4835 1554 4801 1535 4758C 1522 4725 1520 4565 1520 3357C 1520 2364 1523 1984 1531 1959C 1548 1908 1586 1862 1630 1840C 1668 1820 1690 1820 2525 1820L2525 1820L3380 1820L3380 1638L3380 1455L3013 1458C 2812 1459 2643 1457 2638 1452C 2633 1447 2610 1366 2587 1272L2587 1272L2544 1100L3966 1100L5388 1100L5350 1222C 5329 1290 5304 1370 5293 1400L5293 1400L5275 1455L4913 1458L4550 1460L4550 1640L4550 1820L5407 1820L6263 1820L6306 1845C 6332 1860 6360 1888 6375 1914L6375 1914L6400 1957L6400 3349C 6400 4727 6400 4741 6380 4781C 6369 4802 6341 4834 6318 4850L6318 4850L6277 4880L3966 4880C 1729 4880 1654 4879 1625 4861zM6160 3350L6160 2110L3960 2110L1760 2110L1760 3350L1760 4590L3960 4590L6160 4590L6160 3350z" stroke="none" fill="#000000" fill-rule="nonzero" />
	<g transform="matrix(0.13328123 0 -0 -0.13340165 0 651)">
	</g>
    <path transform="matrix(0.13328123 0 -0 -0.13340165 0 651)"  d="M72 3950C 54 3939 31 3916 20 3898C 0 3865 0 3844 0 2120C 0 396 0 375 20 342C 31 324 54 301 72 290C 104 271 124 270 563 270C 1081 270 1071 269 1115 345L1115 345L1140 387L1140 2120L1140 3853L1115 3895C 1071 3971 1081 3970 563 3970C 124 3970 104 3969 72 3950zM1067 3585C 1067 3572 1004 3570 563 3570C 123 3570 60 3572 60 3585C 60 3598 123 3600 563 3600C 1004 3600 1067 3598 1067 3585zM1070 3433C 1070 3423 963 3420 570 3420C 177 3420 70 3423 70 3433C 70 3442 177 3445 570 3445C 963 3445 1070 3442 1070 3433zM1070 3285C 1070 3272 1008 3270 570 3270C 132 3270 70 3272 70 3285C 70 3298 132 3300 570 3300C 1008 3300 1070 3298 1070 3285zM1070 3130C 1070 3123 897 3120 570 3120C 243 3120 70 3123 70 3130C 70 3137 243 3140 570 3140C 897 3140 1070 3137 1070 3130zM1070 2983C 1070 2966 1040 2965 570 2965C 100 2965 70 2966 70 2983C 70 2999 100 3000 570 3000C 1040 3000 1070 2999 1070 2983zM963 1892C 973 1883 980 1863 980 1840C 980 1777 926 1747 872 1780C 845 1797 840 1805 840 1838C 840 1909 908 1938 963 1892z" stroke="none" fill="#000000" fill-rule="nonzero" />
	<g transform="matrix(0.13328123 0 -0 -0.13340165 0 651)">
	</g>
    <path transform="matrix(0.13328123 0 -0 -0.13340165 0 651)"  d="M1876 950C 1843 940 1794 896 1775 859C 1763 836 1727 672 1661 329C 1625 145 1637 75 1714 22L1714 22L1746 0L3979 0C 6469 0 6248 -7 6293 73C 6337 149 6336 164 6270 470C 6258 522 6240 606 6230 655C 6187 852 6167 899 6105 937C 6076 954 5997 955 3990 957C 2828 958 1892 955 1876 950z" stroke="none" fill="#000000" fill-rule="nonzero" />
</g>
</svg>